<svg width="18" height="18" viewBox="0 0 18 18" fill="none" xmlns="http://www.w3.org/2000/svg">
<path d="M4.84313 7.13437C4.79542 7.09145 4.7393 7.05789 4.67797 7.03562C4.61665 7.01335 4.55131 7.00279 4.4857 7.00456C4.42008 7.00633 4.35548 7.02038 4.29557 7.04592C4.23566 7.07146 4.18163 7.10798 4.13654 7.1534C4.09146 7.19882 4.05622 7.25225 4.03282 7.31063C4.00943 7.36902 3.99834 7.43123 4.0002 7.49369C4.00206 7.55616 4.01682 7.61767 4.04364 7.6747C4.07046 7.73174 4.10882 7.78318 4.15653 7.8261L8.65389 11.87C8.74667 11.9535 8.86951 12 8.99719 12C9.12487 12 9.24771 11.9535 9.34049 11.87L13.8384 7.8261C13.8871 7.78347 13.9265 7.73203 13.9542 7.67479C13.9819 7.61754 13.9973 7.55563 13.9997 7.49264C14.002 7.42965 13.9912 7.36685 13.9679 7.30788C13.9445 7.24891 13.9091 7.19494 13.8636 7.14912C13.8182 7.10329 13.7636 7.06652 13.7031 7.04094C13.6426 7.01536 13.5774 7.00149 13.5112 7.00011C13.445 6.99874 13.3792 7.0099 13.3176 7.03295C13.2559 7.056 13.1998 7.09047 13.1523 7.13437L8.99719 10.8699L4.84313 7.13437Z" fill="#00334E"/>
</svg>
