<svg width="465" height="465" viewBox="0 0 465 465" fill="none" xmlns="http://www.w3.org/2000/svg">
<g clip-path="url(#clip0_32_20)">
<path d="M263.5 418.5H201.5L232.5 348.75L263.5 418.5Z" fill="#FD9808"/>
<path d="M193.75 457.25L201.5 418.5H263.5L271.25 457.25H193.75Z" fill="#FD7308"/>
<path d="M149.575 303.8L147.25 302.25L139.5 333.25L201.5 418.5L232.501 348.75C199.95 348.75 170.5 330.15 149.575 303.8Z" fill="#FD9808"/>
<path d="M315.425 303.8C294.5 330.15 265.05 348.75 232.5 348.75L263.5 418.5L325.5 333.25L317.75 302.25L315.425 303.8Z" fill="#FD9808"/>
<path d="M438.65 392.925C396.025 370.45 354.95 353.4 317.75 348.75H313.875L263.5 418.5L271.25 457.25H268.15H457.25V423.924C457.25 410.749 450.275 399.124 438.65 392.925Z" fill="#FCC309"/>
<path d="M438.65 392.925C396.025 370.45 354.95 353.4 317.75 348.75H313.874L311.549 351.849C344.099 358.824 378.2 373.55 414.624 392.924C426.249 399.124 433.224 410.749 433.224 423.924V457.25H456.474V423.924C457.249 410.749 450.275 399.124 438.65 392.925Z" fill="#FD9808"/>
<path d="M151.125 348.75H147.249C110.049 353.4 69.7499 370.45 27.1249 392.925C15.5 399.125 7.74951 410.75 7.74951 423.925V457.25H193.75L201.499 418.501L151.125 348.75Z" fill="#FCC309"/>
<path d="M50.3745 392.925C86.7993 373.55 120.899 358.825 153.45 351.85L151.125 348.751H147.249C110.049 353.401 69.7499 370.451 27.1249 392.926C15.5 399.126 7.74951 410.751 7.74951 423.926V457.251H30.9992V423.926C31.0001 410.749 38.7497 399.124 50.3745 392.925Z" fill="white"/>
<path d="M116.25 170.5V209.25C116.25 277.45 168.175 348.75 232.5 348.75C296.826 348.75 348.75 277.45 348.75 209.25V170.5H116.25Z" fill="#FFDD09"/>
<path d="M325.5 170.5V209.25C325.5 273.575 279.775 340.225 220.875 347.975C224.751 348.75 228.625 348.75 232.5 348.75C296.826 348.75 348.751 277.45 348.751 209.25V170.5H325.5Z" fill="#FD9808"/>
<path d="M139.5 170.5V209.25C139.5 273.575 185.225 340.225 244.125 347.975C240.249 348.75 236.375 348.75 232.5 348.75C168.174 348.75 116.25 277.45 116.25 209.25V170.5H139.5Z" fill="white"/>
<path d="M263.5 31.0002V23.2497C263.5 14.7245 256.525 7.74958 247.999 7.74958H216.999C208.474 7.74958 201.499 14.7245 201.499 23.2497V30.9993C143.374 44.9491 100.749 92.9996 100.749 154.999V170.499H364.249V154.999C364.25 92.9996 321.625 44.95 263.5 31.0002Z" fill="#FCC309"/>
<path d="M263.5 31.0002V23.2497C263.5 14.7245 256.525 7.74958 248 7.74958H224.75C233.275 7.74958 255.75 14.7245 255.75 23.2497V30.9993C313.875 44.9491 341 92.9996 341 154.999V170.499H364.25V154.999C364.25 92.9996 321.625 44.95 263.5 31.0002Z" fill="#FD9808"/>
<path d="M201.499 31.0002V23.2497C201.499 14.7245 208.474 7.74958 216.999 7.74958H240.249C231.724 7.74958 201.499 14.7245 201.499 23.2497V31.0002C144.15 44.95 124 93.0005 124 155V170.5H100.75V155C100.75 92.9996 143.375 44.95 201.499 31.0002Z" fill="white"/>
<path d="M119.35 89.1253L178.25 100.75L166.625 44.1753C147.25 55.0245 130.975 70.5246 119.35 89.1253Z" fill="#54C9FD"/>
<path d="M345.65 89.1253L286.75 100.75L298.375 44.1753C317.75 55.0245 334.025 70.5246 345.65 89.1253Z" fill="#54C9FD"/>
<path d="M263.5 69.75C258.85 69.75 255.75 66.6503 255.75 62.0004V31.0002C255.75 26.3502 258.85 23.2506 263.5 23.2506C268.15 23.2506 271.249 26.3502 271.249 31.0002V62.0004C271.249 66.6503 268.15 69.75 263.5 69.75Z" fill="black"/>
<path d="M201.5 69.75C196.85 69.75 193.75 66.6503 193.75 62.0004V31.0002C193.75 26.3502 196.85 23.2506 201.5 23.2506C206.15 23.2506 209.249 26.3502 209.249 31.0002V62.0004C209.25 66.6503 206.15 69.75 201.5 69.75Z" fill="black"/>
<path d="M364.25 178.25H100.75C96.1001 178.25 93.0005 175.15 93.0005 170.5V155C93.0005 93.7752 133.301 41.8503 193.751 24.8V23.2497C193.751 10.0745 204.601 -7.62939e-06 217 -7.62939e-06H248C261.176 -7.62939e-06 271.25 10.8502 271.25 23.2497V24.8C331.7 41.8503 372 93.7752 372 155V170.5C371.999 175.15 368.9 178.25 364.25 178.25ZM108.5 162.75H356.499V155C356.499 99.1999 318.524 51.9249 261.949 38.7498C258.074 37.9751 255.749 34.8745 255.749 31.0002V23.2497C255.749 18.5997 251.874 15.5001 248 15.5001H216.999C212.349 15.5001 209.25 19.3753 209.25 23.2497V30.9993C209.25 34.8745 206.925 37.9742 203.05 38.7488C146.475 51.924 108.5 99.1989 108.5 154.999V162.75Z" fill="black"/>
<path d="M379.75 178.25H85.2501C80.6001 178.25 77.5005 175.15 77.5005 170.5C77.5005 165.85 80.6001 162.751 85.2501 162.751H379.75C384.4 162.751 387.5 165.85 387.5 170.5C387.5 175.15 384.4 178.25 379.75 178.25Z" fill="black"/>
<path d="M232.499 356.499C161.199 356.499 108.5 279 108.5 209.25V170.5C108.5 165.85 111.599 162.751 116.249 162.751H348.749C353.399 162.751 356.498 165.85 356.498 170.5V209.25C356.499 279 303.8 356.499 232.499 356.499ZM124 178.25V209.25C124 284.424 181.349 341 232.499 341C283.65 341 340.999 284.425 340.999 209.25V178.25H124Z" fill="black"/>
<path d="M263.5 426.249H201.499C199.174 426.249 196.075 424.699 195.299 422.374C194.524 420.049 193.749 417.724 194.524 414.625L225.525 344.875C227.075 341.775 229.4 340.225 232.499 340.225C235.599 340.225 238.7 341.775 239.474 344.875L270.475 414.625C271.249 416.949 271.249 420.049 269.7 422.374C268.15 424.7 266.599 426.249 263.5 426.249ZM213.9 410.749H251.875L232.499 368.124L213.9 410.749Z" fill="black"/>
<path d="M193.75 465C191.425 465 189.1 464.225 187.549 461.9C185.999 460.35 185.225 458.025 185.999 455.7L193.749 416.95C194.523 413.075 197.624 410.75 201.498 410.75H263.499C267.374 410.75 270.474 413.075 271.248 416.95L278.998 455.7C279.773 458.025 278.998 460.35 277.448 461.9C275.897 464.225 273.572 465 271.247 465H193.75ZM207.7 426.249L203.05 449.499H261.949L257.299 426.249H207.7Z" fill="black"/>
<path d="M201.499 426.249C199.174 426.249 196.849 424.699 195.299 423.15L133.299 337.9C131.749 336.349 131.749 333.25 131.749 331.699L139.498 300.699C140.273 298.374 141.823 296.824 144.148 295.275C146.473 294.5 148.798 294.5 151.123 295.275L153.448 296.049C154.223 296.824 154.998 297.6 155.773 298.374C177.473 325.499 204.598 340.999 232.498 340.999C234.823 340.999 237.922 342.55 238.698 344.875C239.473 347.199 240.248 349.524 239.473 352.624L208.472 422.374C207.698 424.699 204.597 427.024 202.272 427.024C202.275 426.249 202.275 426.249 201.499 426.249ZM148.025 331.699L199.95 403L220.875 355.725C196.075 352.625 171.275 339.45 151.125 317.75L148.025 331.699Z" fill="black"/>
<path d="M263.5 426.249H262.725C259.625 426.249 257.3 423.924 256.525 421.599L225.524 351.849C224.75 349.524 224.75 346.425 226.299 344.1C227.849 341.775 230.174 341 232.499 341C261.175 341 288.3 326.275 309.224 298.375C309.999 297.601 310.775 296.825 311.549 296.05L313.874 295.276C316.199 294.501 318.524 293.725 320.849 295.276C323.174 296.05 324.724 298.375 325.499 300.7L333.249 331.7C334.023 334.025 333.249 336.35 331.698 337.901L269.698 423.151C268.15 425.475 265.825 426.249 263.5 426.249ZM244.124 355.725L265.049 403L316.974 331.699L313.874 317.75C293.724 339.45 269.7 352.625 244.124 355.725Z" fill="black"/>
<path d="M457.25 465H268.15C264.274 465 261.175 461.9 260.4 458.025C260.4 455.7 261.175 454.15 261.95 452.601L255.75 420.051C254.976 417.726 255.75 415.401 257.3 413.851L307.675 344.101C309.225 341.776 311.55 341.001 313.875 341.001H317.751H318.525C352.625 344.876 390.6 358.826 441.75 385.951C455.7 393.701 465 408.426 465 423.926V457.251C465 461.899 461.899 465 457.25 465ZM277.45 449.5H449.5V423.925C449.5 413.851 444.075 404.55 434.775 399.125C385.949 373.551 349.524 360.376 317.75 355.726L271.249 419.275L277.45 449.5Z" fill="black"/>
<path d="M193.75 465H7.74959C3.09965 465 0 461.9 0 457.25V423.925C0 407.651 8.52519 392.925 23.2497 385.95C74.3999 358.825 112.375 344.875 146.475 341H147.25H151.125C153.45 341 155.775 342.551 157.325 344.1L207.7 413.85C209.25 415.4 209.25 417.725 209.25 420.05L201.5 458.8C200.725 462.675 197.625 465 193.75 465ZM15.5001 449.5H187.55L193.75 420.05L147.25 356.5C115.475 360.376 79.8245 373.551 30.2246 399.9C20.9247 404.55 15.4992 413.85 15.4992 423.925L15.5001 449.5Z" fill="black"/>
<path d="M196.849 465H193.75C189.1 465 186 461.9 186 457.25C186 452.601 189.1 449.501 193.75 449.501H196.849C201.499 449.501 204.599 452.601 204.599 457.25C204.6 461.899 200.724 465 196.849 465Z" fill="black"/>
<path d="M178.25 108.5C177.475 108.5 177.475 108.5 176.699 108.5L117.8 96.8749C115.475 96.1002 113.15 94.5499 112.375 92.2249C111.6 89.9 111.6 87.575 113.15 85.25C125.55 65.8747 142.6 49.5999 163.524 37.9751C165.849 36.4248 168.174 36.4248 170.499 37.9751C172.824 38.7498 174.375 41.0747 175.149 43.3997L186.774 99.9745C187.549 102.299 186.774 105.399 184.449 106.949C182.125 107.725 180.575 108.5 178.25 108.5ZM132.525 83.6998L168.175 90.6747L161.2 56.5748C150.35 64.3253 140.275 73.6252 132.525 83.6998Z" fill="black"/>
<path d="M286.75 108.5C284.425 108.5 282.874 107.725 281.325 106.175C279.775 104.624 279 101.525 279 99.1998L290.625 42.625C291.4 40.3001 292.95 38.7498 294.5 37.2004C296.825 36.4257 299.15 36.4257 301.475 37.2004C322.4 48.8252 339.45 65.1 351.85 84.4754C353.4 86.8003 353.4 89.1253 352.624 91.4503C351.85 93.7752 349.525 95.3255 347.2 96.1002L288.3 108.501C287.525 108.5 287.525 108.5 286.75 108.5ZM303.8 56.5748L296.825 90.6747L332.475 83.6998C324.725 73.6252 314.65 64.3253 303.8 56.5748Z" fill="black"/>
</g>
<defs>
<clipPath id="clip0_32_20">
<rect width="465" height="465" fill="white"/>
</clipPath>
</defs>
</svg>
