<svg width="24" height="24" viewBox="0 0 24 24" fill="none" xmlns="http://www.w3.org/2000/svg">
<path d="M11.8 1C8.93566 1 6.18864 2.13785 4.16325 4.16325C2.13785 6.18864 1 8.93566 1 11.8C1 14.6643 2.13785 17.4114 4.16325 19.4368C6.18864 21.4621 8.93566 22.6 11.8 22.6C14.6643 22.6 17.4114 21.4621 19.4368 19.4368C21.4621 17.4114 22.6 14.6643 22.6 11.8C22.6 8.93566 21.4621 6.18864 19.4368 4.16325C17.4114 2.13785 14.6643 1 11.8 1ZM2.332 12.616H5.344C5.392 13.708 5.5444 14.7928 5.8 15.856H3.208C2.72465 14.8371 2.42795 13.7397 2.332 12.616ZM12.616 6.136V2.428C13.7724 2.86747 14.7227 3.72355 15.28 4.828C15.526 5.2444 15.7432 5.6776 15.928 6.124L12.616 6.136ZM16.48 7.756C16.7584 8.8156 16.924 9.9016 16.972 10.996H12.616V7.756H16.48ZM10.984 2.428V6.136H7.672C7.85711 5.68924 8.07366 5.25615 8.32 4.84C8.87496 3.73102 9.82551 2.87039 10.984 2.428ZM10.984 7.756V10.996H6.64C6.688 9.9016 6.8536 8.8156 7.132 7.756H10.984ZM5.344 10.984H2.332C2.42795 9.86031 2.72465 8.76294 3.208 7.744H5.8C5.54391 8.80678 5.3912 9.89183 5.344 10.984ZM6.64 12.616H10.984V15.856H7.132C6.85364 14.7965 6.68872 13.7104 6.64 12.616ZM10.996 17.416V21.124C9.83958 20.6845 8.88934 19.8285 8.332 18.724C8.08566 18.3079 7.86911 17.8748 7.684 17.428L10.996 17.416ZM12.616 21.124V17.476H15.928C15.7429 17.9228 15.5263 18.3559 15.28 18.772C14.7227 19.8765 13.7724 20.7325 12.616 21.172V21.124ZM12.616 15.796V12.556H16.96C16.9113 13.6504 16.7464 14.7365 16.468 15.796H12.616ZM18.268 12.556H21.28C21.184 13.6797 20.8874 14.7771 20.404 15.796H17.8C18.052 14.752 18.2044 13.6876 18.256 12.616L18.268 12.556ZM18.268 10.936C18.213 9.86357 18.0563 8.79879 17.8 7.756H20.392C20.8756 8.776 21.172 9.8728 21.268 10.996L18.268 10.936ZM19.468 6.136H17.32C16.9313 5.04436 16.368 4.02307 15.652 3.112C17.1453 3.7823 18.4423 4.82326 19.42 6.136H19.468ZM7.948 3.112C7.23198 4.02307 6.66865 5.04436 6.28 6.136H4.18C5.15767 4.82326 6.45474 3.7823 7.948 3.112ZM4.168 17.512H6.28C6.66865 18.6036 7.23198 19.6249 7.948 20.536C6.45061 19.8556 5.15314 18.8019 4.18 17.476L4.168 17.512ZM15.64 20.536C16.356 19.6249 16.9193 18.6036 17.308 17.512H19.42C18.4364 18.8072 17.1398 19.8312 15.652 20.488L15.64 20.536Z" fill="#70C6D1"/>
</svg>
